<svg width="15" height="14" viewBox="0 0 15 14" fill="none" xmlns="http://www.w3.org/2000/svg">
<g clip-path="url(#clip0_1453_772)">
<path d="M12.925 2.1233H1.81867C1.66939 2.1233 1.50519 2.15315 1.32605 2.21286L7.32707 8.25867L8.71537 6.95994L13.4177 2.21286C13.2385 2.15315 13.0743 2.1233 12.925 2.1233ZM13.9551 2.79505L9.52147 7.22864L13.9551 11.6622C14.0446 11.5129 14.0894 11.3487 14.0894 11.1696V3.28767C14.0894 3.10854 14.0446 2.94433 13.9551 2.79505ZM0.788648 2.79505C0.699081 2.94433 0.654297 3.10854 0.654297 3.28767V11.1696C0.654297 11.3487 0.699081 11.5129 0.788648 11.6622L5.22224 7.22864L0.788648 2.79505ZM8.98407 7.76605L7.64056 9.06477C7.55099 9.15434 7.45396 9.19912 7.34946 9.19912C7.24497 9.19912 7.14794 9.15434 7.05837 9.06477L5.75964 7.76605L1.32605 12.2444C1.50519 12.3041 1.66939 12.334 1.81867 12.334H12.925C13.0743 12.334 13.2385 12.3041 13.4177 12.2444L8.98407 7.76605Z" fill="#F75928"/>
</g>
<defs>
<clipPath id="clip0_1453_772">
<rect width="13.4351" height="13.4351" fill="white" transform="matrix(1 0 0 -1 0.654297 13.9463)"/>
</clipPath>
</defs>
</svg>
