<svg width="38" height="38" viewBox="0 0 38 38" fill="none" xmlns="http://www.w3.org/2000/svg">
<rect x="0.900391" y="0.518555" width="36.2" height="36.2" fill="white"/>
<rect x="0.900391" y="0.518555" width="36.2" height="36.2" stroke="white"/>
<path d="M10.1914 17.6396C10.1914 13.9485 10.1914 12.1024 11.3386 10.9563C12.4848 9.80908 14.3308 9.80908 18.0219 9.80908H19.9795C23.6707 9.80908 25.5167 9.80908 26.6629 10.9563C27.8101 12.1024 27.8101 13.9485 27.8101 17.6396V19.5972C27.8101 23.2883 27.8101 25.1344 26.6629 26.2806C25.5167 27.4277 23.6707 27.4277 19.9795 27.4277H18.0219C14.3308 27.4277 12.4848 27.4277 11.3386 26.2806C10.1914 25.1344 10.1914 23.2883 10.1914 19.5972V17.6396Z" stroke="black" stroke-width="1.95763"/>
<path d="M23.4057 15.682C24.2166 15.682 24.8739 15.0247 24.8739 14.2138C24.8739 13.403 24.2166 12.7456 23.4057 12.7456C22.5948 12.7456 21.9375 13.403 21.9375 14.2138C21.9375 15.0247 22.5948 15.682 23.4057 15.682Z" fill="black"/>
<path d="M19.0009 21.555C20.6226 21.555 21.9373 20.2403 21.9373 18.6186C21.9373 16.9968 20.6226 15.6821 19.0009 15.6821C17.3791 15.6821 16.0645 16.9968 16.0645 18.6186C16.0645 20.2403 17.3791 21.555 19.0009 21.555Z" stroke="black" stroke-width="1.95763"/>
</svg>
