<svg width="34" height="35" viewBox="0 0 34 35" fill="none" xmlns="http://www.w3.org/2000/svg">
<rect x="0.28125" y="0.0761719" width="33.5878" height="34" rx="16.7939" fill="#E63131"/>
<path d="M17.4355 14.0273C18.8821 14.0273 20.076 15.2213 20.076 16.6678C20.076 18.1372 18.8821 19.3082 17.4355 19.3082C15.9661 19.3082 14.7951 18.1372 14.7951 16.6678C14.7951 15.2213 15.9661 14.0273 17.4355 14.0273ZM17.4355 18.3898C18.3769 18.3898 19.1346 17.6321 19.1346 16.6678C19.1346 15.7264 18.3769 14.9687 17.4355 14.9687C16.4712 14.9687 15.7135 15.7264 15.7135 16.6678C15.7135 17.6321 16.4942 18.3898 17.4355 18.3898ZM20.7878 13.9355C20.7878 14.2799 20.5122 14.5554 20.1678 14.5554C19.8234 14.5554 19.5479 14.2799 19.5479 13.9355C19.5479 13.5911 19.8234 13.3156 20.1678 13.3156C20.5122 13.3156 20.7878 13.5911 20.7878 13.9355ZM22.5328 14.5554C22.5787 15.405 22.5787 17.9536 22.5328 18.8031C22.4868 19.6297 22.3032 20.3414 21.7062 20.9614C21.1092 21.5583 20.3745 21.742 19.5479 21.7879C18.6984 21.8339 16.1498 21.8339 15.3002 21.7879C14.4737 21.742 13.7619 21.5583 13.142 20.9614C12.545 20.3414 12.3613 19.6297 12.3154 18.8031C12.2695 17.9536 12.2695 15.405 12.3154 14.5554C12.3613 13.7288 12.545 12.9941 13.142 12.3971C13.7619 11.8002 14.4737 11.6165 15.3002 11.5706C16.1498 11.5246 18.6984 11.5246 19.5479 11.5706C20.3745 11.6165 21.1092 11.8002 21.7062 12.3971C22.3032 12.9941 22.4868 13.7288 22.5328 14.5554ZM21.4307 19.6985C21.7062 19.0327 21.6373 17.4255 21.6373 16.6678C21.6373 15.933 21.7062 14.3258 21.4307 13.637C21.247 13.2008 20.9026 12.8334 20.4663 12.6727C19.7775 12.3971 18.1703 12.466 17.4355 12.466C16.6779 12.466 15.0706 12.3971 14.4048 12.6727C13.9456 12.8563 13.6012 13.2008 13.4175 13.637C13.142 14.3258 13.2108 15.933 13.2108 16.6678C13.2108 17.4255 13.142 19.0327 13.4175 19.6985C13.6012 20.1578 13.9456 20.5022 14.4048 20.6858C15.0706 20.9614 16.6779 20.8925 17.4355 20.8925C18.1703 20.8925 19.7775 20.9614 20.4663 20.6858C20.9026 20.5022 21.2699 20.1578 21.4307 19.6985Z" fill="white"/>
</svg>
