<svg width="34" height="35" viewBox="0 0 34 35" fill="none" xmlns="http://www.w3.org/2000/svg">
<rect x="0.304688" y="0.0761719" width="33.5878" height="34" rx="16.7939" fill="#58A1FB"/>
<path d="M14.6119 21.0762H12.4766V14.211H14.6119V21.0762ZM13.5328 13.2926C12.8669 13.2926 12.3159 12.7186 12.3159 12.0298C12.3159 11.3639 12.8669 10.8129 13.5328 10.8129C14.2216 10.8129 14.7726 11.3639 14.7726 12.0298C14.7726 12.7186 14.2216 13.2926 13.5328 13.2926ZM22.5792 21.0762H20.4668V17.7469C20.4668 16.9433 20.4438 15.933 19.3417 15.933C18.2396 15.933 18.0789 16.7826 18.0789 17.678V21.0762H15.9436V14.211H17.9871V15.1524H18.01C18.3085 14.6243 18.9973 14.0503 20.0305 14.0503C22.1888 14.0503 22.6021 15.4738 22.6021 17.3107V21.0762H22.5792Z" fill="white"/>
</svg>
