<svg width="38" height="38" viewBox="0 0 38 38" fill="none" xmlns="http://www.w3.org/2000/svg">
<rect x="0.900391" y="0.518555" width="36.2" height="36.2" fill="white"/>
<rect x="0.900391" y="0.518555" width="36.2" height="36.2" stroke="white"/>
<path d="M13.8567 12.109C13.8565 12.6023 13.6603 13.0753 13.3113 13.4239C12.9623 13.7726 12.4891 13.9683 11.9958 13.968C11.5025 13.9678 11.0295 13.7716 10.6808 13.4226C10.3322 13.0736 10.1365 12.6004 10.1367 12.1071C10.137 11.6138 10.3332 11.1408 10.6822 10.7922C11.0312 10.4435 11.5043 10.2478 11.9976 10.248C12.491 10.2483 12.964 10.4445 13.3126 10.7935C13.6612 11.1425 13.857 11.6157 13.8567 12.109ZM13.9125 15.3454H10.1925V26.989H13.9125V15.3454ZM19.7901 15.3454H16.0887V26.989H19.7529V20.8789C19.7529 17.4751 24.189 17.1589 24.189 20.8789V26.989H27.8625V19.6141C27.8625 13.876 21.2967 14.0899 19.7529 16.9078L19.7901 15.3454Z" fill="#050403"/>
</svg>
