<svg width="14" height="14" viewBox="0 0 14 14" fill="none" xmlns="http://www.w3.org/2000/svg">
<g clip-path="url(#clip0_1453_779)">
<path d="M6.74471 0.511174C5.87889 0.511174 5.07278 0.727629 4.32639 1.16054C3.57999 1.59345 2.98287 2.1831 2.53504 2.92949C2.0872 3.67589 1.86328 4.49693 1.86328 5.3926C1.86328 6.76597 2.59475 8.55732 4.05768 10.7666C4.83393 11.9012 5.62511 12.9163 6.43122 13.8119C6.52079 13.9015 6.62528 13.9463 6.74471 13.9463C6.86413 13.9463 6.96862 13.9015 7.05819 13.8119C7.8643 12.9163 8.65548 11.9012 9.43173 10.7666C10.8947 8.55732 11.6261 6.76597 11.6261 5.3926C11.6261 4.49693 11.4022 3.67589 10.9544 2.92949C10.5065 2.1831 9.90942 1.59345 9.16303 1.16054C8.41663 0.727629 7.61052 0.511174 6.74471 0.511174ZM6.74471 7.81092C6.05802 7.81092 5.47583 7.57207 4.99814 7.09438C4.52045 6.61669 4.2816 6.04196 4.2816 5.37021C4.2816 4.69845 4.52045 4.12373 4.99814 3.64603C5.47583 3.16834 6.05802 2.92949 6.74471 2.92949C7.43139 2.92949 8.01358 3.16834 8.49127 3.64603C8.96896 4.12373 9.20781 4.69845 9.20781 5.37021C9.20781 6.04196 8.96896 6.61669 8.49127 7.09438C8.01358 7.57207 7.43139 7.81092 6.74471 7.81092Z" fill="#F75928"/>
</g>
<defs>
<clipPath id="clip0_1453_779">
<rect width="13.4351" height="13.4351" fill="white" transform="matrix(1 0 0 -1 0.0273438 13.9463)"/>
</clipPath>
</defs>
</svg>
