<svg width="19" height="15" viewBox="0 0 19 15" fill="none" xmlns="http://www.w3.org/2000/svg">
<path d="M12.026 14.457C12.026 14.457 16.527 9.95196 18.28 8.19796C18.427 8.05196 18.5 7.85996 18.5 7.66796C18.5 7.47596 18.427 7.28396 18.28 7.13796C16.528 5.38396 12.028 0.880957 12.028 0.880957C11.883 0.735956 11.692 0.663956 11.501 0.663956C11.31 0.664956 11.118 0.737956 10.971 0.884956C10.678 1.17796 10.677 1.65096 10.967 1.94196L15.943 6.91796L1.251 6.91796C0.837 6.91796 0.500999 7.25396 0.500999 7.66796C0.500999 8.08196 0.837 8.41796 1.251 8.41796L15.943 8.41796L10.965 13.397C10.676 13.686 10.678 14.158 10.971 14.451C11.118 14.598 11.31 14.672 11.501 14.672C11.692 14.673 11.881 14.601 12.026 14.457Z" fill="white"/>
</svg>
