<svg width="14" height="14" viewBox="0 0 14 14" fill="none" xmlns="http://www.w3.org/2000/svg">
<g clip-path="url(#clip0_1453_765)">
<path d="M12.6396 9.33357C11.8036 9.33357 10.9975 9.19922 10.2213 8.93051C10.0421 8.8708 9.85555 8.86334 9.66149 8.90812C9.46742 8.9529 9.31068 9.03501 9.19126 9.15443L7.66861 10.3188C6.80279 9.84111 6.07879 9.31117 5.4966 8.72899C4.91441 8.1468 4.38447 7.42279 3.90678 6.55698L5.02637 5.07911C5.17565 4.92983 5.27268 4.75816 5.31746 4.5641C5.36225 4.37004 5.35478 4.18344 5.29507 4.0043C5.02637 3.22805 4.89202 2.42195 4.89202 1.58598C4.89202 1.28743 4.78752 1.03365 4.57853 0.82466C4.36954 0.61567 4.11577 0.511174 3.81721 0.511174H1.35411C1.05555 0.511174 0.801774 0.61567 0.592783 0.82466C0.383792 1.03365 0.279297 1.28743 0.279297 1.58598C0.279297 3.82517 0.846557 5.90015 1.98108 7.81092C3.05589 9.69184 4.53375 11.1697 6.41467 12.2445C8.32544 13.379 10.4004 13.9463 12.6396 13.9463C12.9382 13.9463 13.1919 13.8418 13.4009 13.6328C13.6099 13.4238 13.7144 13.17 13.7144 12.8715V10.4084C13.7144 10.1098 13.6099 9.85604 13.4009 9.64705C13.1919 9.43806 12.9382 9.33357 12.6396 9.33357Z" fill="#F75928"/>
</g>
<defs>
<clipPath id="clip0_1453_765">
<rect width="13.4351" height="13.4351" fill="white" transform="matrix(1 0 0 -1 0.279297 13.9463)"/>
</clipPath>
</defs>
</svg>
