<svg width="19" height="15" viewBox="0 0 19 15" fill="none" xmlns="http://www.w3.org/2000/svg">
<path d="M6.974 0.886977C6.974 0.886977 2.473 5.39198 0.72 7.14598C0.573 7.29198 0.5 7.48398 0.5 7.67598C0.5 7.86798 0.573 8.05998 0.72 8.20598C2.472 9.95998 6.972 14.463 6.972 14.463C7.117 14.608 7.308 14.68 7.499 14.68C7.69 14.679 7.882 14.606 8.029 14.459C8.322 14.166 8.323 13.693 8.033 13.402L3.057 8.42598H17.749C18.163 8.42598 18.499 8.08998 18.499 7.67598C18.499 7.26198 18.163 6.92598 17.749 6.92598H3.057L8.035 1.94698C8.324 1.65798 8.322 1.18598 8.029 0.892977C7.882 0.745977 7.69 0.671977 7.499 0.671977C7.308 0.670977 7.119 0.742977 6.974 0.886977Z" fill="white"/>
</svg>
