<svg width="63" height="12" viewBox="0 0 63 12" fill="none" xmlns="http://www.w3.org/2000/svg">
<path d="M5.5 0.5L6.73483 4.30041H10.7308L7.49799 6.64919L8.73282 10.4496L5.5 8.10081L2.26718 10.4496L3.50201 6.64919L0.269189 4.30041H4.26517L5.5 0.5Z" fill="#0D3C66"/>
<path d="M18.5 0.5L19.7348 4.30041H23.7308L20.498 6.64919L21.7328 10.4496L18.5 8.10081L15.2672 10.4496L16.502 6.64919L13.2692 4.30041H17.2652L18.5 0.5Z" fill="#0D3C66"/>
<path d="M31.5 0.5L32.7348 4.30041H36.7308L33.498 6.64919L34.7328 10.4496L31.5 8.10081L28.2672 10.4496L29.502 6.64919L26.2692 4.30041H30.2652L31.5 0.5Z" fill="#0D3C66"/>
<path d="M44.5 0.5L45.7348 4.30041H49.7308L46.498 6.64919L47.7328 10.4496L44.5 8.10081L41.2672 10.4496L42.502 6.64919L39.2692 4.30041H43.2652L44.5 0.5Z" fill="#0D3C66"/>
<path d="M57.5 0.5L58.7348 4.30041H62.7308L59.498 6.64919L60.7328 10.4496L57.5 8.10081L54.2672 10.4496L55.502 6.64919L52.2692 4.30041H56.2652L57.5 0.5Z" fill="#0D3C66"/>
</svg>
