<svg width="40" height="40" viewBox="0 0 40 40" fill="none" xmlns="http://www.w3.org/2000/svg">
<rect width="36" height="36" rx="2" fill="#0D3C66"/>
<rect x="4.5" y="4.5" width="35" height="35" rx="1.5" stroke="#0D3C66"/>
<path d="M13.5511 26V23.7159L19.6108 17.7756C20.1903 17.1903 20.6733 16.6705 21.0597 16.2159C21.446 15.7614 21.7358 15.321 21.929 14.8949C22.1222 14.4687 22.2188 14.0142 22.2188 13.5312C22.2188 12.9801 22.0938 12.5085 21.8438 12.1165C21.5938 11.7188 21.25 11.4119 20.8125 11.196C20.375 10.9801 19.8778 10.8722 19.321 10.8722C18.7472 10.8722 18.2443 10.9915 17.8125 11.2301C17.3807 11.4631 17.0455 11.7955 16.8068 12.2273C16.5739 12.6591 16.4574 13.1733 16.4574 13.7699H13.4489C13.4489 12.6619 13.7017 11.6989 14.2074 10.8807C14.7131 10.0625 15.4091 9.42898 16.2955 8.98011C17.1875 8.53125 18.2102 8.30682 19.3636 8.30682C20.5341 8.30682 21.5625 8.52557 22.4489 8.96307C23.3352 9.40057 24.0227 10 24.5114 10.7614C25.0057 11.5227 25.2528 12.392 25.2528 13.3693C25.2528 14.0227 25.1278 14.6648 24.8778 15.2955C24.6278 15.9261 24.1875 16.625 23.5568 17.392C22.9318 18.1591 22.054 19.0881 20.9233 20.179L17.9148 23.2386V23.358H25.517V26H13.5511Z" fill="white"/>
</svg>
