<svg width="40" height="40" viewBox="0 0 40 40" fill="none" xmlns="http://www.w3.org/2000/svg">
<rect width="36" height="36" rx="2" fill="#0D3C66"/>
<rect x="4.5" y="4.5" width="35" height="35" rx="1.5" stroke="#0D3C66"/>
<path d="M19.8153 26.2386C18.5881 26.2386 17.4972 26.0284 16.5426 25.608C15.5938 25.1875 14.8438 24.6023 14.2926 23.8523C13.7415 23.1023 13.4489 22.2358 13.4148 21.2528H16.6193C16.6477 21.7244 16.804 22.1364 17.0881 22.4886C17.3722 22.8352 17.75 23.1051 18.2216 23.2983C18.6932 23.4915 19.2216 23.5881 19.8068 23.5881C20.4318 23.5881 20.9858 23.4801 21.4688 23.2642C21.9517 23.0426 22.3295 22.7358 22.6023 22.3438C22.875 21.9517 23.0085 21.5 23.0028 20.9886C23.0085 20.4602 22.8722 19.9943 22.5938 19.5909C22.3153 19.1875 21.9119 18.8722 21.3835 18.6449C20.8608 18.4176 20.2301 18.304 19.4915 18.304H17.9489V15.8665H19.4915C20.0994 15.8665 20.6307 15.7614 21.0852 15.5511C21.5455 15.3409 21.9063 15.0455 22.1676 14.6648C22.429 14.2784 22.5568 13.8324 22.5511 13.3267C22.5568 12.8324 22.446 12.4034 22.2188 12.0398C21.9972 11.6705 21.6818 11.3835 21.2727 11.179C20.8693 10.9744 20.3949 10.8722 19.8494 10.8722C19.3153 10.8722 18.821 10.9687 18.3665 11.1619C17.9119 11.3551 17.5455 11.6307 17.267 11.9886C16.9886 12.3409 16.8409 12.7614 16.8239 13.25H13.7812C13.804 12.2727 14.0852 11.4148 14.625 10.6761C15.1705 9.93182 15.8977 9.35227 16.8068 8.9375C17.7159 8.51705 18.7358 8.30682 19.8665 8.30682C21.0313 8.30682 22.0426 8.52557 22.9006 8.96307C23.7642 9.39489 24.4318 9.97727 24.9034 10.7102C25.375 11.4432 25.6108 12.2528 25.6108 13.1392C25.6165 14.1222 25.3267 14.946 24.7415 15.6108C24.1619 16.2756 23.4006 16.7102 22.4574 16.9148V17.0511C23.6847 17.2216 24.625 17.6761 25.2784 18.4148C25.9375 19.1477 26.2642 20.0597 26.2585 21.1506C26.2585 22.1278 25.9801 23.0028 25.4233 23.7756C24.8722 24.5426 24.1108 25.1449 23.1392 25.5824C22.1733 26.0199 21.0653 26.2386 19.8153 26.2386Z" fill="white"/>
</svg>
