<svg width="42" height="42" viewBox="0 0 42 42" fill="none" xmlns="http://www.w3.org/2000/svg">
<rect y="-0.0078125" width="41.9847" height="41.9847" rx="20.9924" fill="#F3F3F3"/>
<path d="M28.3428 24.9974C28.6085 25.2926 28.6085 25.7354 28.3133 26.0011L27.4867 26.8277C27.221 27.1229 26.7782 27.1229 26.483 26.8277L23.5605 23.9052C23.4129 23.7576 23.3538 23.5804 23.3538 23.4033V22.9015C22.2911 23.728 20.9922 24.2004 19.5752 24.2004C16.1803 24.2004 13.4349 21.455 13.4349 18.0601C13.4349 14.6948 16.1803 11.9198 19.5752 11.9198C22.9405 11.9198 25.7155 14.6948 25.7155 18.0601C25.7155 19.5066 25.2136 20.8055 24.4166 21.8387H24.8889C25.066 21.8387 25.2431 21.9273 25.3907 22.0454L28.3428 24.9974ZM19.5752 21.8387C21.6416 21.8387 23.3538 20.1561 23.3538 18.0601C23.3538 15.9937 21.6416 14.2815 19.5752 14.2815C17.4792 14.2815 15.7966 15.9937 15.7966 18.0601C15.7966 20.1561 17.4792 21.8387 19.5752 21.8387Z" fill="#1B1B1B"/>
</svg>
