<svg width="130" height="23" viewBox="0 0 130 23" fill="none" xmlns="http://www.w3.org/2000/svg">
<path d="M11 0.927734L13.4697 8.52855H21.4616L14.996 13.2261L17.4656 20.8269L11 16.1294L4.53436 20.8269L7.00402 13.2261L0.538379 8.52855H8.53035L11 0.927734Z" fill="#F9C013"/>
<path d="M38 1L40.4697 8.60081H48.4616L41.996 13.2984L44.4656 20.8992L38 16.2016L31.5344 20.8992L34.004 13.2984L27.5384 8.60081H35.5303L38 1Z" fill="#F9C013"/>
<path d="M65 0.927734L67.4697 8.52855H75.4616L68.996 13.2261L71.4656 20.8269L65 16.1294L58.5344 20.8269L61.004 13.2261L54.5384 8.52855H62.5303L65 0.927734Z" fill="#F9C013"/>
<path d="M92 0.927734L94.4697 8.52855H102.462L95.996 13.2261L98.4656 20.8269L92 16.1294L85.5344 20.8269L88.004 13.2261L81.5384 8.52855H89.5303L92 0.927734Z" fill="#F9C013"/>
<path d="M119 0.927734L121.47 8.52855H129.462L122.996 13.2261L125.466 20.8269L119 16.1294L112.534 20.8269L115.004 13.2261L108.538 8.52855H116.53L119 0.927734Z" fill="#F9C013"/>
</svg>
