<svg width="38" height="38" viewBox="0 0 38 38" fill="none" xmlns="http://www.w3.org/2000/svg">
<rect x="0.699219" y="0.518555" width="36.2" height="36.2" fill="white"/>
<rect x="0.699219" y="0.518555" width="36.2" height="36.2" stroke="white"/>
<path d="M28.5279 12.5739C27.8118 12.8994 27.0399 13.1133 26.2401 13.2156C27.0585 12.7227 27.6909 11.9415 27.9885 11.0022C27.2166 11.4672 26.361 11.7927 25.4589 11.9787C24.7242 11.1789 23.6919 10.7139 22.5201 10.7139C20.3346 10.7139 18.549 12.4995 18.549 14.7036C18.549 15.0198 18.5862 15.3267 18.6513 15.615C15.3405 15.4476 12.3924 13.8573 10.4301 11.4486C10.086 12.0345 9.89067 12.7227 9.89067 13.4481C9.89067 14.8338 10.5882 16.0614 11.667 16.7589C11.0067 16.7589 10.3929 16.5729 9.85347 16.2939V16.3218C9.85347 18.2562 11.2299 19.8744 13.0527 20.2371C12.4674 20.3972 11.8531 20.4195 11.2578 20.3022C11.5104 21.095 12.0051 21.7887 12.6723 22.2858C13.3396 22.7829 14.1458 23.0584 14.9778 23.0736C13.5675 24.19 11.8195 24.7934 10.0209 24.7848C9.70467 24.7848 9.38847 24.7662 9.07227 24.729C10.8393 25.8636 12.9411 26.5239 15.1917 26.5239C22.5201 26.5239 26.547 20.4417 26.547 15.1686C26.547 14.9919 26.547 14.8245 26.5377 14.6478C27.3189 14.0898 27.9885 13.383 28.5279 12.5739Z" fill="#050403"/>
</svg>
