<svg width="34" height="35" viewBox="0 0 34 35" fill="none" xmlns="http://www.w3.org/2000/svg">
<rect x="0.257812" y="0.0761719" width="33.5878" height="34" rx="16.7939" fill="#58A1FB"/>
<path d="M21.8348 14.2799C21.8348 14.3947 21.8348 14.4865 21.8348 14.6013C21.8348 17.7928 19.4239 21.4435 14.9926 21.4435C13.615 21.4435 12.3521 21.0532 11.296 20.3644C11.4796 20.3874 11.6633 20.4103 11.87 20.4103C12.995 20.4103 14.0283 20.02 14.8548 19.3771C13.7986 19.3541 12.9032 18.6653 12.6047 17.701C12.7654 17.724 12.9032 17.7469 13.0639 17.7469C13.2706 17.7469 13.5002 17.701 13.6838 17.6551C12.5817 17.4255 11.7552 16.4611 11.7552 15.2902V15.2672C12.0766 15.4509 12.4669 15.5427 12.8573 15.5657C12.1914 15.1294 11.7781 14.3947 11.7781 13.5681C11.7781 13.1089 11.8929 12.6956 12.0996 12.3512C13.2935 13.7977 15.0844 14.7621 17.082 14.8769C17.0361 14.6932 17.0131 14.5095 17.0131 14.3258C17.0131 12.9941 18.0922 11.915 19.4239 11.915C20.1128 11.915 20.7327 12.1905 21.1919 12.6727C21.72 12.5579 22.2481 12.3512 22.7073 12.0757C22.5236 12.6497 22.1562 13.1089 21.6511 13.4074C22.1333 13.3615 22.6154 13.2237 23.0287 13.04C22.7073 13.5222 22.294 13.9355 21.8348 14.2799Z" fill="white"/>
</svg>
