<svg width="1440" height="110" viewBox="0 0 1440 110" fill="none" xmlns="http://www.w3.org/2000/svg">
<path d="M-651.887 82.6549C-358.287 82.6549 -84.26 8.92725 209.34 8.92725C502.94 8.92725 776.967 82.6549 1070.57 82.6549C1364.17 82.6549 1638.19 8.92725 1931.79 8.92725C2225.39 8.92725 2499.42 82.6549 2793.02 82.6549V262.878H-651.887V82.6549Z" fill="white" fill-opacity="0.7"/>
<path d="M-874.723 94.943C-581.123 94.943 -307.096 21.2153 -13.496 21.2153C280.104 21.2153 554.131 94.943 847.731 94.943C1141.33 94.943 1415.36 21.2153 1708.96 21.2153C2002.56 21.2153 2276.58 94.943 2570.18 94.943V275.166H-874.723V94.943Z" fill="white" fill-opacity="0.5"/>
<path d="M-1001.63 103.135C-708.033 103.135 -434.006 29.4072 -140.406 29.4072C153.194 29.4072 427.221 103.135 720.821 103.135C1014.42 103.135 1288.45 29.4072 1582.05 29.4072C1875.65 29.4072 2149.67 103.135 2443.27 103.135V283.358H-1001.63V103.135Z" fill="white" fill-opacity="0.3"/>
<path d="M-1279.39 111.327C-985.795 111.327 -711.768 37.5991 -418.168 37.5991C-124.568 37.5991 149.459 111.327 443.059 111.327C736.659 111.327 1010.69 37.5991 1304.29 37.5991C1597.89 37.5991 1871.91 111.327 2165.51 111.327V291.55H-1279.39V111.327Z" fill="white"/>
</svg>
